<svg width="400" height="400" xmlns="http://www.w3.org/2000/svg">
  <defs>
    <pattern id="pencilTexture" patternUnits="userSpaceOnUse" width="100" height="100">
      <!-- Horizontal lines -->
      <path d="M0,10 L100,10" stroke="#333" stroke-width="0.3" stroke-opacity="0.1" />
      <path d="M0,20 L100,20" stroke="#333" stroke-width="0.2" stroke-opacity="0.08" />
      <path d="M0,30 L100,30" stroke="#333" stroke-width="0.3" stroke-opacity="0.1" />
      <path d="M0,40 L100,40" stroke="#333" stroke-width="0.2" stroke-opacity="0.07" />
      <path d="M0,50 L100,50" stroke="#333" stroke-width="0.3" stroke-opacity="0.09" />
      <path d="M0,60 L100,60" stroke="#333" stroke-width="0.2" stroke-opacity="0.08" />
      <path d="M0,70 L100,70" stroke="#333" stroke-width="0.3" stroke-opacity="0.1" />
      <path d="M0,80 L100,80" stroke="#333" stroke-width="0.2" stroke-opacity="0.07" />
      <path d="M0,90 L100,90" stroke="#333" stroke-width="0.3" stroke-opacity="0.09" />
      
      <!-- Vertical lines -->
      <path d="M10,0 L10,100" stroke="#333" stroke-width="0.2" stroke-opacity="0.08" />
      <path d="M20,0 L20,100" stroke="#333" stroke-width="0.3" stroke-opacity="0.1" />
      <path d="M30,0 L30,100" stroke="#333" stroke-width="0.2" stroke-opacity="0.07" />
      <path d="M40,0 L40,100" stroke="#333" stroke-width="0.3" stroke-opacity="0.09" />
      <path d="M50,0 L50,100" stroke="#333" stroke-width="0.2" stroke-opacity="0.08" />
      <path d="M60,0 L60,100" stroke="#333" stroke-width="0.3" stroke-opacity="0.1" />
      <path d="M70,0 L70,100" stroke="#333" stroke-width="0.2" stroke-opacity="0.07" />
      <path d="M80,0 L80,100" stroke="#333" stroke-width="0.3" stroke-opacity="0.09" />
      <path d="M90,0 L90,100" stroke="#333" stroke-width="0.2" stroke-opacity="0.08" />
      
      <!-- Random scribbles -->
      <path d="M5,5 C10,10 15,5 20,10 S25,15 30,10" stroke="#333" stroke-width="0.3" stroke-opacity="0.05" />
      <path d="M60,70 C65,75 70,65 75,70 S80,75 85,70" stroke="#333" stroke-width="0.3" stroke-opacity="0.05" />
      <path d="M40,30 C45,35 50,25 55,30 S60,35 65,30" stroke="#333" stroke-width="0.3" stroke-opacity="0.05" />
      <path d="M10,80 C15,85 20,75 25,80 S30,85 35,80" stroke="#333" stroke-width="0.3" stroke-opacity="0.05" />
    </pattern>
  </defs>
  
  <rect width="400" height="400" fill="url(#pencilTexture)" />
</svg> 